# File created by Blade
# Date/Time:  Wed Jan 21 15:23:43 2015
# Frame Rate: 120.000 fps
#------------------------------------------------------
:FULLY-SPECIFIED
:DEGREES
1439
root 25.886445 35.359779 -19.923964 -174.235445 2.056519 -182.888653
Spine 2.394772 7.924771 -4.015041
Head 19.501174 11.151331 -1.894993
LeftShoulder -10.371543 -21.200191 -3.629623
LeftArm -23.118019 9.045858 -72.389687
LeftForeArm 9.580243 -0.000000 15.423183
LeftHand -1.032199 -0.000000 -3.092981
LeftHandThumb1 -26.253704 0.000000 33.147579
RightShoulder -3.254240 -14.500476 5.130254
RightArm 13.660712 -16.296964 68.059414
RightForeArm -27.538994 -0.000000 30.671555
RightHand -1.013455 -0.000000 4.216886
RightHandThumb1 -24.326973 -0.000000 -32.862282
LeftUpLeg -0.772013 9.161188 2.935738
LeftLeg -4.856719 -0.000000 0.000000
LeftFoot -14.066120 26.497732 -15.469352
LeftToeBase 24.173425 -0.000000 -0.000000
RightUpLeg -10.789140 -19.151581 -9.810655
RightLeg 7.085824 -0.000000 -0.000000
RightFoot -15.117890 -32.130026 13.762817
RightToeBase 25.219634 -0.000000 -0.000000
1440
root 25.663250 35.335033 -19.942478 -174.464654 2.098102 -183.014382
Spine 2.372126 7.898326 -4.304220
Head 19.604095 11.047900 -1.540457
LeftShoulder -10.186954 -21.026582 -3.536903
LeftArm -22.874912 9.582684 -72.739741
LeftForeArm 9.798009 -0.000000 14.992872
LeftHand -1.080917 0.000000 -3.544161
LeftHandThumb1 -26.253704 0.000000 33.147579
RightShoulder -3.361878 -14.432947 5.261637
RightArm 13.520750 -15.750876 68.391907
RightForeArm -27.552516 -0.000000 30.851377
RightHand -1.034013 -0.000000 4.339585
RightHandThumb1 -24.326973 -0.000000 -32.862282
LeftUpLeg -0.505746 9.292328 2.491933
LeftLeg -4.845449 -0.000000 0.000000
LeftFoot -14.680809 26.189360 -15.374546
LeftToeBase 24.614630 -0.000000 -0.000000
RightUpLeg -10.483270 -19.088676 -10.373008
RightLeg 6.930626 -0.000000 -0.000000
RightFoot -14.756853 -32.243825 13.708079
RightToeBase 25.319186 -0.000000 -0.000000
1441
root 25.435674 35.309499 -19.956540 -174.684017 2.162097 -183.163970
Spine 2.346815 7.825564 -4.619399
Head 19.665596 11.005314 -1.235528
LeftShoulder -10.026593 -20.970078 -3.428310
LeftArm -22.760551 10.056133 -73.045424
LeftForeArm 9.970644 -0.000000 14.647831
LeftHand -1.161047 0.000000 -4.063898
LeftHandThumb1 -26.253704 0.000000 33.147579
RightShoulder -3.431430 -14.479805 5.378558
RightArm 13.531515 -15.227851 68.682242
RightForeArm -27.561981 -0.000000 31.011348
RightHand -1.109811 -0.000000 4.026316
RightHandThumb1 -24.326973 -0.000000 -32.862282
LeftUpLeg -0.267565 9.434928 2.008102
LeftLeg -4.822397 -0.000000 0.000000
LeftFoot -15.329723 25.940968 -15.323263
LeftToeBase 25.063487 -0.000000 -0.000000
RightUpLeg -10.233287 -19.060035 -10.958830
RightLeg 6.827218 -0.000000 -0.000000
RightFoot -14.385536 -32.301050 13.624418
RightToeBase 25.397541 -0.000000 -0.000000
1442
root 25.205402 35.282350 -19.962188 -174.864533 2.247622 -183.268651
Spine 2.303710 7.774061 -4.830992
Head 19.703509 11.021390 -0.950757
LeftShoulder -9.906498 -20.861057 -3.372876
LeftArm -22.544278 10.703236 -73.386696
LeftForeArm 10.079707 -0.000000 14.310103
LeftHand -1.262728 -0.000000 -4.487694
LeftHandThumb1 -26.253704 0.000000 33.147579
RightShoulder -3.517629 -14.390527 5.471503
RightArm 13.376229 -14.688535 68.985999
RightForeArm -27.721533 -0.000000 31.300585
RightHand -1.072998 -0.000000 3.979037
RightHandThumb1 -24.326973 -0.000000 -32.862282
LeftUpLeg -0.107910 9.623735 1.546977
LeftLeg -4.747565 -0.000000 0.000000
LeftFoot -15.995488 25.678263 -15.185078
LeftToeBase 25.555183 -0.000000 -0.000000
RightUpLeg -10.068678 -19.016008 -11.485599
RightLeg 6.762999 -0.000000 -0.000000
RightFoot -13.976601 -32.351596 13.513969
RightToeBase 25.543301 -0.000000 -0.000000
1443
root 24.974139 35.252731 -19.966990 -175.050134 2.307252 -183.345886
Spine 2.263454 7.684272 -4.993088
Head 19.703254 10.932267 -0.774131
LeftShoulder -9.771737 -20.805999 -3.342915
LeftArm -22.395650 11.302959 -73.699934
LeftForeArm 10.296202 0.000000 14.039350
LeftHand -1.303537 -0.000000 -4.940769
LeftHandThumb1 -26.253704 0.000000 33.147579
RightShoulder -3.627525 -14.386313 5.561207
RightArm 13.326126 -14.292992 69.167101
RightForeArm -27.740297 -0.000000 31.619702
RightHand -1.094177 -0.000000 3.972631
RightHandThumb1 -24.326973 -0.000000 -32.862282
LeftUpLeg 0.056515 9.744431 1.108000
LeftLeg -4.689718 -0.000000 0.000000
LeftFoot -16.671804 25.541671 -14.959641
LeftToeBase 26.094473 -0.000000 -0.000000
RightUpLeg -9.889015 -18.988288 -11.997520
RightLeg 6.698412 -0.000000 -0.000000
RightFoot -13.527204 -32.388868 13.371561
RightToeBase 25.638899 -0.000000 -0.000000
1444
root 24.747163 35.222460 -19.965048 -175.226347 2.372544 -183.380025
Spine 2.243202 7.556490 -5.092044
Head 19.635670 10.901467 -0.539687
LeftShoulder -9.709222 -20.692445 -3.326292
LeftArm -22.115307 11.851624 -73.958356
LeftForeArm 10.460715 -0.000000 13.744354
LeftHand -1.254070 -0.000000 -5.414210
LeftHandThumb1 -26.253704 0.000000 33.147579
RightShoulder -3.694159 -14.351617 5.635328
RightArm 13.267610 -13.914392 69.322818
RightForeArm -27.879755 -0.000000 31.985748
RightHand -1.081560 -0.000000 4.051321
RightHandThumb1 -24.326973 -0.000000 -32.862282
LeftUpLeg 0.228374 9.781199 0.726588
LeftLeg -4.668724 -0.000000 0.000000
LeftFoot -17.255153 25.499981 -14.577931
LeftToeBase 26.458810 -0.000000 -0.000000
RightUpLeg -9.765568 -18.954919 -12.449098
RightLeg 6.694990 -0.000000 -0.000000
RightFoot -13.078137 -32.446833 13.171107
RightToeBase 25.807574 -0.000000 -0.000000
1445
root 24.507569 35.196418 -19.965239 -175.425032 2.510897 -183.510386
Spine 2.233856 7.514575 -5.279762
Head 19.547251 10.888105 -0.309659
LeftShoulder -9.650010 -20.601361 -3.365944
LeftArm -21.800704 12.563491 -74.196550
LeftForeArm 10.501604 0.000000 13.413841
LeftHand -1.241804 -0.000000 -5.631640
LeftHandThumb1 -26.253704 0.000000 33.147579
RightShoulder -3.779542 -14.366754 5.780418
RightArm 13.251751 -13.604258 69.353673
RightForeArm -27.933258 -0.000000 32.388257
RightHand -1.096101 -0.000000 4.145839
RightHandThumb1 -24.326973 -0.000000 -32.862282
LeftUpLeg 0.455189 9.834416 0.222809
LeftLeg -4.704707 -0.000000 0.000000
LeftFoot -17.595022 25.589818 -13.984823
LeftToeBase 26.607005 -0.000000 -0.000000
RightUpLeg -9.649684 -18.810574 -13.030669
RightLeg 6.699198 -0.000000 -0.000000
RightFoot -12.560334 -32.480155 12.983337
RightToeBase 25.582318 -0.000000 -0.000000
1446
root 24.265931 35.177055 -19.960716 -175.605303 2.724891 -183.722392
Spine 2.222839 7.555956 -5.574917
Head 19.390291 10.824005 -0.079383
LeftShoulder -9.611058 -20.562698 -3.421769
LeftArm -21.465146 13.403247 -74.411958
LeftForeArm 10.392985 -0.000000 13.130996
LeftHand -1.426399 -0.000000 -5.810693
LeftHandThumb1 -26.253704 0.000000 33.147579
RightShoulder -3.925626 -14.328605 6.033594
RightArm 13.251459 -13.387523 69.254986
RightForeArm -28.020770 -0.000000 32.819713
RightHand -1.139374 -0.000000 4.287284
RightHandThumb1 -24.326973 -0.000000 -32.862282
LeftUpLeg 0.691009 9.885080 -0.376958
LeftLeg -4.807590 -0.000000 0.000000
LeftFoot -17.742238 25.801815 -13.278190
LeftToeBase 26.815866 -0.000000 -0.000000
RightUpLeg -9.625758 -18.543904 -13.691436
RightLeg 6.780311 -0.000000 -0.000000
RightFoot -12.050525 -32.569606 12.733654
RightToeBase 25.046382 -0.000000 -0.000000
1447
root 24.031993 35.171580 -19.957518 -175.803141 2.951690 -183.989330
Spine 2.225205 7.658315 -5.987430
Head 19.186169 10.670997 0.244911
LeftShoulder -9.514776 -20.569210 -3.507464
LeftArm -21.069648 14.273791 -74.521170
LeftForeArm 10.166534 -0.000000 12.684928
LeftHand -1.400638 0.000000 -6.038415
LeftHandThumb1 -26.253704 0.000000 33.147579
RightShoulder -4.103928 -14.325098 6.479064
RightArm 13.301321 -13.168418 69.021243
RightForeArm -28.143137 -0.000000 33.212473
RightHand -0.979682 -0.000000 4.291188
RightHandThumb1 -24.326973 -0.000000 -32.862282
LeftUpLeg 1.011337 9.866613 -1.018117
LeftLeg -5.051940 -0.000000 0.000000
LeftFoot -17.767345 26.082144 -12.958124
LeftToeBase 26.814651 -0.000000 -0.000000
RightUpLeg -9.589788 -18.269030 -14.383196
RightLeg 6.857668 -0.000000 -0.000000
RightFoot -11.402125 -32.700630 12.147368
RightToeBase 24.233378 -0.000000 -0.000000
1448
root 23.793680 35.175712 -19.954488 -176.070069 3.284075 -184.330912
Spine 2.323969 7.835770 -6.490509
Head 18.919701 10.501989 0.588892
LeftShoulder -9.486756 -20.544254 -3.578859
LeftArm -20.520085 15.079090 -74.562662
LeftForeArm 10.038585 -0.000000 12.157301
LeftHand -1.382973 -0.000000 -6.184551
LeftHandThumb1 -26.253704 0.000000 33.147579
RightShoulder -4.239445 -14.284155 7.011614
RightArm 13.372625 -12.991958 68.659143
RightForeArm -28.074721 -0.000000 33.622347
RightHand -0.982156 0.000000 4.544153
RightHandThumb1 -24.326973 -0.000000 -32.862282
LeftUpLeg 1.426206 9.888646 -1.717589
LeftLeg -5.327405 -0.000000 0.000000
LeftFoot -17.749784 26.297755 -12.968281
LeftToeBase 26.648149 -0.000000 -0.000000
RightUpLeg -9.570445 -17.963164 -15.146634
RightLeg 6.981517 -0.000000 -0.000000
RightFoot -10.650220 -32.746264 11.417518
RightToeBase 23.182061 -0.000000 -0.000000
1449
root 23.565647 35.185027 -19.948687 -176.306220 3.665568 -184.581635
Spine 2.395138 8.076419 -6.869394
Head 18.615019 10.361872 0.885097
LeftShoulder -9.475636 -20.630820 -3.645453
LeftArm -20.043188 16.079164 -74.682021
LeftForeArm 9.763650 -0.000000 11.577889
LeftHand -1.316686 -0.000000 -6.119932
LeftHandThumb1 -26.253704 0.000000 33.147579
RightShoulder -4.460012 -14.259318 7.516297
RightArm 13.581363 -13.066474 68.203607
RightForeArm -28.057104 -0.000000 33.889717
RightHand -0.931236 -0.000000 4.549150
RightHandThumb1 -24.326973 -0.000000 -32.862282
LeftUpLeg 1.821587 9.992476 -2.290885
LeftLeg -5.606190 -0.000000 0.000000
LeftFoot -17.719257 26.354681 -13.083516
LeftToeBase 26.493196 -0.000000 -0.000000
RightUpLeg -9.625639 -17.566432 -15.760876
RightLeg 7.115134 -0.000000 -0.000000
RightFoot -9.785130 -32.936241 10.596679
RightToeBase 21.622977 -0.000000 -0.000000
1450
root 23.359062 35.198012 -19.938160 -176.467778 4.014438 -184.651404
Spine 2.376298 8.268562 -7.054118
Head 18.377923 10.161327 1.139545
LeftShoulder -9.466773 -20.668821 -3.670854
LeftArm -19.463641 16.633693 -74.726800
LeftForeArm 9.973213 -0.000000 10.844545
LeftHand -1.126734 -0.000000 -6.027982
LeftHandThumb1 -26.253704 0.000000 33.147579
RightShoulder -4.598033 -14.261381 7.956777
RightArm 13.787638 -13.105028 67.811424
RightForeArm -28.107767 -0.000000 34.019411
RightHand -0.802010 0.000000 4.512427
RightHandThumb1 -24.326973 -0.000000 -32.862282
LeftUpLeg 2.153494 10.117530 -2.641245
LeftLeg -5.893346 -0.000000 0.000000
LeftFoot -17.648474 26.307662 -13.069995
LeftToeBase 26.448811 -0.000000 -0.000000
RightUpLeg -9.750552 -17.230060 -16.100764
RightLeg 7.238225 -0.000000 -0.000000
RightFoot -8.876669 -33.158651 9.789559
RightToeBase 19.892135 -0.000000 -0.000000
